<?xml version="1.0" encoding="utf-8"?>
<!-- Generator: Adobe Illustrator 18.1.1, SVG Export Plug-In . SVG Version: 6.00 Build 0)  -->
<!DOCTYPE svg PUBLIC "-//W3C//DTD SVG 1.1//EN" "http://www.w3.org/Graphics/SVG/1.1/DTD/svg11.dtd">
<svg version="1.1" id="Layer_1" xmlns="http://www.w3.org/2000/svg" xmlns:xlink="http://www.w3.org/1999/xlink" x="0px" y="0px"
	 viewBox="-10.5 296.7 1280.5 321.1" enable-background="new -10.5 296.7 1280.5 321.1" xml:space="preserve">
<g>
	<g>
		<g>
			<g>
				<path fill="#FFFFFF" d="M452.4,376.8c-1.9-5.5-0.5-1.9,0-7.2c0.2-2.2,0.2-4.3,0.2-6.5c-0.2-5.5-2.2-9.9-8.4-11.3
					c-2.2-0.5-4.1-1-6.2-0.5c-4.1,1-8.2-1.7-12.3-1c-5,1-9.9-1.4-14.7-0.2c-4.6,1.2-8.9,2.9-13.7,4.1c-8.7,1.9-16.8,4.6-25,7.9
					c-3.4,1.2-5.5,0.5-7.9,3.4c-5.5,7.2-7.2,9.9-8.7,18.5c-0.2,1,0,1.9,0.5,2.9c1.2,3.4,2.9,6.2,6.5,7.7c1.2,0.5,2.6,1.4,3.1,2.6
					c0.7,1.9,9.9,6.7,12.3,5.8c4.3-1.7,8.4-3.8,12.7-5c6.7-2.2,13.5-4.1,20.2-6c2.2-0.5,4.3-1,6.2-1.2c2.9-0.2,4.1,1,3.8,3.8
					c-0.2,10.3-0.7,20.7-1.2,31c-0.2,2.9-1,3.4-3.8,3.4c-7.5-0.5-14.9-1-22.4-1.4c-2.9-0.2-6,0-9.1-0.2c-1.9,0-3.8,0-6.2,0
					c0.2-2.6,0.2-4.8,0.7-6.7c0.7-4.3-0.5-7.9-3.1-11.3c-1-1.2-9.1-5-8.9-4.6c-1.7,0.7-3.4,1-4.6,1.9c-4.1,3.1-8.9,5.3-11.8,9.9
					c-0.7,1.2-2.4,2.2-3.6,3.1c-1.7,1.2-3.4,2.6-5.3,3.8c-6.7,5-13.2,10.1-19.9,14.9c-0.5,0.5-1.4,0.5-2.4,0.7
					c-0.5-1.4-1-2.6-1.2-3.8c-1.2-6-2.4-12-3.8-18c-0.5-2.4-1.2-5-1.9-7.5c-2.2-8.9-4.3-17.8-6.2-26.9c-1-4.3-4.3-6.5-7.7-8.2
					c-2.9-1.4-6-1.2-9.1,0.2c-3.8,1.9-6,5.5-7.9,8.9c-4.1,7.5-7.7,15.1-10.8,22.8c-5.3,13-9.9,26-15.1,38.9
					c-2.2,5.3-5,10.3-7.5,15.4c-0.7,1.2-1.4,2.6-3.6,1.9c-0.2-1-0.2-2.2-0.5-3.6c0-1.7,0-3.1-0.2-4.8c-0.5-6-1.2-12.3-1.4-18.3
					c-0.2-7.2,0.2-14.4,0.5-21.4c0.2-5.3,0.2-10.6,0.7-15.9c1.2-9.6,1.2-19.5,1.2-29.3c0-1.4,0-2.9-0.5-4.3c-0.7-3.4-2.4-6-6.5-6.5
					c-1.7-0.2-3.1-0.7-4.6-1c-4.3-0.7-8.9,1.7-11.1,5.5c-3.8,7.5-7.7,14.7-11.8,22.1c-5.3,9.9-10.6,19.7-15.9,29.6
					c-2.2,3.8-4.3,7.9-6.5,11.8c-1.7,3.4-4.6,4.8-8.2,4.1c-1-0.2-1.9-0.2-2.9-0.5c-8.7-2.4-17.1-5-25.7-7.7c-1-0.2-1.7-1-3.1-1.7
					c1.2-1,2.2-1.7,3.1-2.2c3.6-1.7,7.2-2.6,10.6-4.8c6.5-4.1,13.5-7.9,18.7-13.7c3.1-3.1,4.8-7,5-11.5c0.2-3.6,0.2-7.2,1-10.6
					c2.4-12,3.6-24,1.2-36.3c-1-5-3.1-9.4-7.2-12.3c-2.6-1.9-5.5-3.6-8.4-5.3c-5.5-2.9-11.3-5.8-17.3-7.9
					c-5.3-1.7-10.6-3.8-16.3-3.1c-0.7,0-1.7-0.5-2.4-0.5c-2.2-0.5-4.1-1.2-6.2-1.4c-7.7-1-15.4-2.2-23.1-1.7c-3.6,0.2-4.8-1-5-4.3
					c-0.2-4.3-1.7-6.7-6.2-7c-0.2,0-0.5-0.2-0.7-0.2c-4.1-2.4-8.4-1.4-12.5,0c-2.6,1-5,1.9-7.7,2.4c-5.8,1.2-11.5,2.2-17.3,3.4
					c-5.5,1-11.1,1.9-16.6,2.9c-2.2,0.2-4.3,0.5-6.5,0.5c-5.8,0.2-11.5,1.2-17.1,0.5c-5.8-0.7-10.3,0.7-15.1,3.4
					c-2.4,1.2-4.6,2.6-5.8,5c-2.2,4.8-5,9.4-5,14.9c0,1.4-1,2.9-1.4,4.6c0.2,2.4-0.2,4.3-0.2,6.2c0.2,2.6,0.5,5.3,1.4,7.7
					c0.7,2.4,1.9,4.8,3.6,6.7c1.4,1.7,3.4,2.4,5.3,3.6c2.6,1.4,5.3,2.6,7.5,4.8c1,1.2,3.1,1.9,4.6,1.9c6.7,0,13.5-0.2,20.2-1
					c6.2-0.7,12.5-2.2,18.7-3.1c3.1-0.5,6.5-1,9.6-1.7c1.7-0.5,3.6-1.4,4.8,0c0.7,1,1,3.1,0.7,4.3c-1,3.8-2.2,7.7-3.4,11.5
					c-2.9,10.1-6,20.4-8.9,30.5c-2.4,7.9-4.6,15.6-7,23.6c-1,3.4-2.4,6.5-3.4,9.9c-1.4,5.3-2.6,10.6-3.8,15.9
					c-1.4,7-2.6,13.9-3.8,20.7c-0.7,4.3-0.7,8.9-1.9,13.2c-1.2,3.4-1.2,6.2-0.5,9.6c0,0.5,0,1,0,1.2c-1.9,6,0.2,11.3,3.8,16.1
					c1.7,2.4,3.4,3.6,6.5,3.4c1.4-0.2,3.1,0,4.1,0.7c3.8,3.8,7.2,0.7,11.8,0.2c-1.9-2.6-1.4-4.3,0-6.2c1.4-2.2,1.9-5,2.2-7.7
					c0.2-6.2,0.7-12.5,2.4-18.7c0.5-1.7,0.7-3.6,1-5.5c1.4-6.5,2.6-13,4.6-19.2c1.4-4.1,3.4-8.2,4.3-12.5c0.5-1.9,1.4-3.8,2.6-6.5
					c4.1,4.8,7.5,8.9,10.8,12.7c0.7,0.7,1.2,1.7,2.2,2.2c3.6,1.7,7.2,3.4,11.1,4.6c2.6,0.7,5.3,1.2,7.5,3.1c0.5,0.5,1.7,1,2.4,1
					c2.6-0.5,4.8,0.7,7,1.9c2.9,1.4,5.5,3.1,8.4,4.1c5.3,1.7,10.8,3.1,16.1,4.3c5.3,1.4,10.6,2.4,15.9,3.8c2.2,0.5,4.3,1.2,6.7,1.9
					c4.8,1.2,9.9,2.2,14.4,3.6c3.4,1,6.2,2.6,9.6,3.8c3.4,1.4,6,0.5,7-2.6c1.9-5.3,3.6-10.6,5.8-15.6c2.9-6.2,5.5-12.3,6.7-19
					c0.5-2.9,1.9-5.3,4.8-7.9c0.2,2.4,0.5,3.8,0.5,5.5c0,1.4-0.5,2.9-0.5,4.3c0,4.6,0.5,9.1,0.5,13.7c-0.2,11.1,0.5,22.1,4.1,32.7
					c1.9,5.8,4.8,10.8,10.3,13.7c1.4,0.7,3.8,0.2,5.3,1c5.8,2.6,10.3,0.2,14.9-2.9c6-4.1,10.1-10.1,13.5-16.6
					c2.6-5.8,5-11.5,7.7-17.3c1-2.4,2.6-4.6,3.6-7c2.4-6.2,4.6-12.7,7-19c0.7-1.9,1.7-3.6,2.6-5.5c0.5-1,1.7-1.7,2.6-2.9
					c0.7,1.2,1.4,1.9,1.7,2.6c1.2,5,1.9,10.1,3.4,15.1c1,3.4-0.2,5.8-2.2,8.4c-6.5,8.4-12.7,17.1-19,25.7c-3.1,4.6-5.8,9.6-9.1,13.9
					c-5.8,7.7-10.6,16.1-14.2,25c-6.5,15.4-9.9,31.5-10.1,48.3c0,1.7-0.5,3.4-0.5,5c0,5.8-0.2,11.5,0.7,17.1
					c1.2,7.7,4.1,9.6,10.8,9.6c1,0,1.7-0.2,2.6-0.5c2.9-0.2,5.8-0.5,8.4-1c3.6-0.5,7.5-0.7,11.1-1.4c6-1.2,12-2.9,18-4.3
					c5-1.2,9.9-2.9,13.5-6.2c3.8-3.6,7-7.5,9.4-12.3c4.3-7.9,7.5-16.1,9.4-25c0.5-1.7,1-3.4,1.7-4.8c1.9-5.8,4.3-11.3,4.3-17.5
					c0-1.4,0.5-3.1,1-4.6c1.7-4.1,1.7-8.4,1.9-12.7c0-3.4,0-6.7,0.5-9.9c0.2-3.1,2.2-4.1,4.8-2.6c6.5,4.1,13.7,5.5,21.1,6.7
					c6.5,1,12.7,1.4,19.2,0.2c3.6-0.5,7.2-1.2,10.6-2.4c7.2-2.6,14.2-5.5,21.4-8.2c1.7-0.7,3.6-1.4,5.3-1.2c2.4,0.5,1.9,3.1,2.9,5
					c2.4,4.6,6.2,7,11.5,7c4.6,0,8.2-1.9,9.9-6.2c1-2.4,1.7-5,2.6-7.7c2.2-6.2,4.8-12.5,6-19c1.7-8.2,2.2-16.3,3.1-24.8
					c1-8.2,1.4-16.6,2.2-25c1.2-13.2,2.2-26.7,3.4-39.9c0-0.7,0-1.4,0-2.2c0.5-8.4,0.7-10.6,1-19
					C452.6,377.7,452.6,377.3,452.4,376.8z M137.1,370.5c-5.5,2.9-11.3,5.8-16.8,8.7c-3.1,1.4-6.2,2.9-9.1,4.6
					c-5,2.9-10.1,6-15.1,9.1c-1.2,0.7-2.4,1.2-4.8,2.2c0.5-3.6,0.5-6.5,1.4-8.9c2.4-6,2.6-12.3,4.6-18.3c1.2-3.8,1-4.1,5.3-4.3
					c7-0.5,13.9-1.7,20.9,0c4.3,1,9.1,1,13.7,1.4c1.4,0.2,2.6,0.5,4.3,1C140.2,368.4,139,369.8,137.1,370.5z M297.6,547.4
					c-0.7,4.1-1.9,8.7-4.1,12.3c-3.1,5.3-7.2,10.1-13.7,11.5c-2.2,0.5-4.3,1-6.2,1.9c-3.1,1.4-6.2,1-9.4,0.7c-2.4,0-3.4-1.4-3.4-3.6
					c0-2.6,0.2-5.3,1-7.7c1.7-4.1,3.4-7.9,5.8-11.5c6-8.2,11.3-16.8,17.1-25.2c2.6-3.8,5.5-7.7,8.7-11.3c0.7-1,1.9-1.9,3.8-3.4
					c0.5,2.2,1,3.1,1,4.3C299,526.3,299.8,536.8,297.6,547.4z M402.9,477c-0.2,0-0.2,0-0.5,0c-10.8,1.7-21.4,3.6-32.4,2.2
					c-2.4-0.2-4.8-0.7-6.7-3.1c1.2-1.7,2.4-3.4,3.6-5c1.4-1.9,2.9-3.8,4.6-5.5c1-1,2.4-1.7,3.6-2.2c6.2-1.4,12.3-0.2,18,1.7
					c4.3,1.4,7.9,3.6,10.8,7.2C406.5,474.8,406,476,402.9,477z"/>
				<path fill="#FFFFFF" d="M836.2,419.3c3.1,0.7,5.8,1,8.4,0.2c2.2-0.7,4.6-0.5,6.7-0.7c4.1-0.5,7.9-1,12-1.7
					c1.9-0.2,3.6-0.7,5.5-1c2.4-0.2,4.3-1.2,6.2-2.6c1.9-1.7,4.1-3.1,6.2-4.6c2.6-1.4,5.5-0.5,8.4,0c1.2,0.2,2.2,0.7,3.4,0.7
					c6.7,0.7,11.1,7.7,7.9,13.9c-2.9,6-3.8,12-3.6,18.7c0.2,8.4-0.2,16.6,0,25c0.2,7.2,1,14.4,1.7,21.4c0.2,3.6,1.4,7.5,1.7,11.1
					c0.5,6.2-2.4,11.8-4.8,17.3c-0.5,1.2-1,2.6-1.7,3.8c-0.7,1.7-1.7,3.1-2.6,4.8c-0.2,0.5-0.7,0.7-0.7,1c-1,4.8-5.3,5.3-8.9,6
					c-1.7,0.2-3.4,0.7-4.6,2.2c-1.4,1.7-3.1,1.4-4.3-0.2c-1-1.4-2.2-2.9-2.6-4.3c-1.2-5.5-2.4-11.1-2.9-16.6
					c-1-9.6-1.2-19.5-1.7-29.3c-0.2-4.3,0.2-8.9,0.2-13.5c0-3.4,0-6.5-0.2-9.9c-0.2-2.6-1-3.1-3.6-3.1c-1.2,0-2.4,0-3.4,0.5
					c-4.8,2.4-10.1,2.4-15.1,3.1c-0.5,0-1.2,0-1.7,0.2c-3.8,0.7-4.8,1.4-4.6,5.5c0,3.4,0.2,7,1,10.3c0.7,3.6,0.5,6.7-0.7,10.1
					c-2.6,7.2-4.8,14.7-7.5,21.9c-1,2.9-2.2,5.8-3.8,8.2c-1.9,2.6-4.3,4.6-8.2,3.4c-0.5-0.2-1.2,0-1.7,0c-4.8,0.2-8.7-2.6-9.6-7.2
					c-0.5-2.6-0.7-5.5-0.7-8.2c0-11.3,0.2-22.6,0.2-34.1c0-4.6-0.7-5-5.3-5c-6.2,0.2-12.3,0-18.5,0.2c-8.2,0.2-4.3,0.7-12.5,1.2
					c-7.7,0.5-15.4,0.7-23.3,1.4c-4.8,0.2-5.3,0.7-6.5,5.3c-0.2,0.7-0.5,1.7-0.5,2.6c-0.7,3.8-1.4,7.9-1.9,11.8
					c-0.2,1.9-0.5,3.8-0.5,5.5c0.2,5.8-0.2,11.3-2.4,16.8c-2.2,5.3-2.9,11.1-5.3,16.3c-1.7,3.1-3.1,6.5-4.8,9.6
					c-1.2,2.2-3.4,2.2-5.3,1.7c-2.9-0.7-5.5-1.2-8.4-1c-2.9,0.2-4.6-1.9-4.8-4.8c-0.2-1.9,0-4.1,0-6c0-0.5,0.2-1,0-1.2
					c-1.7-3.8,0-7.2,0.5-11.1c1.7-11.3,3.4-22.6,6-33.9c0.7-2.6,1-5.5,1.7-9.1c-1.9,0.2-3.6,0.2-5,0.7c-5.5,1.9-10.8,0.2-15.9-1.7
					c-2.4-1-4.3-3.1-4.8-6.2c-1-6.2-0.5-12.3,1.2-18.3c1.2-4.1,2.9-8.2,5-11.8c3.4-5.5,8.2-9.6,15.4-9.4c2.4,0,4.8,0,7.5,0
					c2.9,0,3.8-0.7,3.8-3.6c0.2-9.9,0.2-19.7,0.5-29.6c0-1.7,0.2-3.1,0.2-4.8c-0.2-2.9-1.4-3.8-4.3-3.4c-2.2,0.5-4.1,1-6.2,1.4
					c-10.3,2.2-20.4,4.3-30.8,6.5c-2.9,0.5-6,0.5-8.9,0.5c-2.2,0-4.1-1.2-5.5-3.1c-3.8-5-7.5-10.1-9.4-16.1c-0.7-2.4-0.7-5.3,0-7.7
					c1.4-5.5,3.6-10.8,5.5-16.3c1.9-5.3,5.8-8.2,11.5-8.9c9.1-1.4,18.3-1.7,27.2-3.8c7-1.7,14.4-1.9,21.6-2.9c1,0,1.7-0.2,2.6-0.5
					c5-1.2,10.3-2.4,15.4-3.6c0.7-0.2,1.9-0.2,2.4,0.2c2.9,1.9,5.5,4.1,6,7.9c1.7,14.4,3.1,28.8,2.9,43.5c-0.2,11.5-1,22.8-2.2,34.4
					c-1,7.7-1,7.9,6.5,8.9c3.1,0.5,6.2,0.2,9.4,0.2c9.1,0,6,0.2,15.1,0c7.7-0.2,15.1-1,22.8-1.2c2.4,0,3.4-1.2,3.4-3.4
					c0-1.9,0.2-3.8,0-5.5c-0.2-6.5,0.2-13.2-0.7-19.7c-1.2-8.4-0.7-17.1-3.6-25.5c-3.6-10.1-1.7-20.2,3.6-29.3
					c1.2-2.2,2.2-4.8,3.6-6.7s3.1-3.8,4.8-5.3c1.7-1.2,3.6-1.9,5.8-0.7c2.6,1.7,5.3,3.1,7.9,5c0.7,0.5,1,1.7,1.2,2.6
					c0.7,3.6,1.2,7,1.7,10.6c1.2,7.5,2.2,14.9,3.1,22.1c0.2,2.4,0.5,4.8,0.7,7.2c0.5,8.4,0.2,16.8-0.2,25.2
					C835.5,406.1,835.9,412.6,836.2,419.3z"/>
				<path fill="#FFFFFF" d="M493.5,386.6c1.9-1.9,3.6-3.1,4.8-4.6c4.6-5.3,10.3-9.6,16.3-13.2c2.4-1.4,5.5-2.6,8.4-2.9
					c5.5-0.5,9.9,2.2,12.5,7.5c1.2,2.4,2.9,4.3,3.8,6.7c2.6,6,5,11.8,7.2,18c1.9,5.3,3.1,11.1,5.3,16.3c2.4,6.5,5.5,12.5,8.4,19
					c1,2.2,1.9,4.6,3.1,6.7c3.6,6.5,9.4,11.5,14.2,17.1c1.7,1.9,3.8,3.8,5.8,5.8c4.1,4.3,8.7,7.5,14.7,8.4c5.8,1,7.5,7.2,6,11.1
					c-3.6,9.4-6.5,19-13.5,26.7c-1,1.2-1.7,2.6-1.9,4.3c-0.2,2.2-1.7,3.4-3.4,4.8c-3.4,2.6-7.2,1.2-10.8,1.9
					c-2.2,0.2-3.4-1.4-4.8-2.6c-3.4-2.6-7-5-10.1-8.2c-5.3-5.5-10.3-11.1-15.1-16.8c-2.9-3.4-5.3-7.2-7.7-10.8
					c-1.4-2.4-2.4-4.8-3.6-7.5c-2.4-5.5-4.8-11.1-7-16.6c-1.9-4.8-3.1-9.9-4.8-14.7c-2.2-5.8-4.1-11.5-6.5-17.3
					c-1.4-3.4-2.9-3.6-6.2-1.9c-5.3,2.4-8.2,7-10.6,12c-2.9,6.5-5.3,13-6.5,19.9c-0.5,2.9-1.9,5.8-2.6,8.7
					c-2.4,7.9-4.8,15.9-7.2,23.8c-1,2.9-0.7,6.5-3.4,8.7c-1.4,1.4-3.1,2.6-4.6,3.8c-0.5,0.2-1,0.5-1.7,0.5c-6.5,0-13.7-5-15.4-11.1
					c-0.2-0.7-0.5-1.4-0.5-2.2c1.2-6.5,0.2-13.2,3.1-19.5c0.2-0.7,0.7-1.7,1-2.4c1.4-13,3.4-25.7,4.6-38.7c0.7-8.7,0.7-17.1-1-25.7
					c-0.5-2.6,1.2-5.8,2.2-8.7c1.4-4.3,2.9-8.4,4.6-12.5c3.8-9.4,10.6-9.4,18-7.2c1.9,0.5,2.9,2.2,3.4,4.1
					C492,380.1,492.8,383,493.5,386.6z"/>
			</g>
			<path fill="#FFFFFF" d="M903.5,327.3c6.2,3.8,7.9,7.7,6.7,15.4c-0.5,2.9-1,5.8-2.9,7.9c-0.2,0.5-0.5,1-0.7,1.7
				c-1,7-5,12.7-7.9,18.7c-1.2,2.6-3.8,3.4-6.2,3.8c-2.4,0.5-5,1.2-7.2,2.2c-3.1,1.4-6.2,2.2-9.4,0.2c-1.2-0.7-2.4-0.7-3.6-1.2
				c-8.7-2.6-13.2-10.6-10.3-19.7c1.4-4.3,2.6-8.9,4.6-13c2.2-5.3,5-10.1,9.6-13.9c2.6-2.4,5-5,7.5-7.7c1.2-1.4,2.6-2.9,3.8-4.1
				c5.5-4.6,11.5-3.8,15.1,2.2C903.2,322,903,324.6,903.5,327.3z"/>
		</g>
		<path fill="#FFFFFF" d="M1268.3,474.6c-3.6-4.1-9.9-5-14.4-2.2c-2.6,1.7-5.5,3.1-8.9,2.6c-1.2-0.2-2.6,0.2-3.8,0.5
			c-4.3,0.5-8.7,1-12.7,1.4c-8.4,0.7-16.8,0.2-25.2-0.7c-4.1-0.5-5.3-1.9-4.8-6c0.2-1.2,0.7-2.4,1-3.6c1.4-4.3,2.4-8.7,5.3-12.5
			c2.9-4.3,4.6-9.6,7-14.2c5.3-9.9,9.9-20.2,13.5-30.8c1.2-3.8,1.4-7.7,0.7-11.5c-0.5-2.4-1.7-4.3-3.8-5.5c-3.1-1.7-6.5-3.1-9.6-4.6
			c-6-2.6-12.5-4.1-19-5.8c-5.5-1.4-11.1-2.9-16.6-4.3c-2.2-0.5-4.6-1-6.7-1.2c-6-0.7-11.5,0-16.6,3.8c-5,3.8-10.1,8.2-14.4,13
			c-3.1,3.4-6.5,6.7-8.9,10.3c-3.8,5.5-7,11.5-10.1,17.3c-6.2,11.3-10.1,23.3-11.5,36.3c-0.2,1.4-0.5,3.1-1.4,3.8
			c-4.8,3.4-9.9,6.2-14.9,9.4c-0.7,0.5-1.7,0.5-2.4,0.5c-2.6-0.7-5-4.1-5-7c0-4.8,2.6-9.1,4.3-13.2c1.4-3.6,3.8-6.7,5.3-10.3
			c0.7-1.7,3.6-3.6,3.6-5.3c0-2.6,2.2-5.3,2.6-7.7c1.7-7-0.2-13.9-1-20.9c-0.5-4.8-3.8-9.6-4.8-14.2c-0.5-2.2-1.9-4.6-3.4-6.2
			c-1.7-2.2-3.8-3.8-7-2.4c-0.5,0.2-1.2,0.2-1.7,0.2c-7.9-1-13.9,3.1-18.5,8.7c-4.1,4.8-8.4,9.1-11.3,14.9
			c-3.6,7.7-7.2,15.4-9.6,23.6c-2.4,8.2-3.8,16.6-5.5,24.8c-0.5,2.2-1.2,3.4-3.1,4.1c-9.1,3.1-17.5,7.9-27.4,9.1
			c-3.6,0.5-7,1.2-10.6,1.7c-4.3,0.5-8.9,0.7-13.2,1c-1,0-1.9-0.5-3.4-0.7c1.7-3.1,3.1-5.8,4.6-8.7c3.6-7.5,7.5-14.9,10.6-22.6
			c3.6-8.4,6.5-16.8,10.1-25.2c1.7-3.8,2.4-7.9,2.9-12c0.5-3.8-1.9-7-5.8-7.9c-1.7-0.5-3.6-0.7-5.5-0.7c-3.8,0.2-7.7,0.7-11.5,1
			c-11.8,1-23.3,2.4-34.8,5.3c-11.1,2.6-21.6,6.7-32.4,10.1c-0.7,0.2-1.4,0.7-2.2,1.4c-3.4,3.6-6.7,7.2-8.2,12
			c-1,2.9-2.4,5.8-3.6,8.7c-1.4,4.1-2.6,7.9-1.7,12.7c1.7,7.5,12.5,13.2,19.5,7.2c2.2-1.9,4.8-3.1,7.5-4.1
			c5.8-2.2,11.8-4.6,17.8-6.2c6-1.7,12.3-2.6,18.5-3.6c1.2-0.2,2.6,0.2,4.6,0.5c-1,1.7-1.4,2.9-1.9,4.1c-3.8,6.2-7.9,12.5-11.5,19
			c-2.2,3.8-4.6,7-7.7,9.9c-0.7,0.7-1.4,1.4-1.9,2.2c-3.1,6-6.2,12-9.4,18c-0.2,0.2-0.2,0.5-0.2,0.7c0.2,4.8-1.4,9.6-1.2,14.7
			c0.5,8.7,7.7,11.5,14.9,11.1c4.8-0.5,9.4-1,14.2-1c4.1,0,8.2-0.5,12.3-2.2c1.7-0.7,3.6-0.7,5.5-1.2c5.8-1,11.5-1.9,17.3-2.9
			c0.5,0,0.7-0.2,1.2-0.5c4.8-2.4,9.6-4.8,14.7-7.2c0.7-0.5,1.7-0.5,2.4-0.7c7.5-2.2,14.9-4.1,21.6-8.2c1.2-0.7,2.9-1.2,3.6-1.7
			c5.3,4.6,10.1,8.7,14.7,12.7c2.4,1.9,4.8,3.6,7.2,5.3c2.4,1.7,5,1.9,7.5,1c5-1.7,10.1-3.4,14.7-6c7.2-4.3,13.9-9.4,20.9-14.2
			c2.6-1.9,5.5-3.6,8.2-5.5c4.3-2.9,8.4-5.8,12.7-8.9c0.7-0.5,1.4-1.2,1.7-1.9c1.4-3.6,4.3-6.5,4.8-10.6c0.2-1.2,1-2.4,1.7-3.6
			c2.4-4.1,2.2-8.2,0.7-12.5c-0.5-1.4-0.7-3.1-1-4.6c-0.7-6.7,1.2-13.2,3.1-19.5c1.7-5.5,5.8-8.7,10.3-8.4c2.6,0.2,5.5,0.5,8.2,1
			c8.9,2.2,17.8,4.3,26.7,6.7c1.4,0.5,2.9,1,4.3,1.9c3.1,1.9,3.4,3.6,1.9,7c-3.1,6.2-6.2,12.7-9.4,19c-4.8,9.4-9.9,19-12.7,29.1
			c-2.6,8.9-5.3,17.8-4.3,27.2c0.7,6.7,6,10.6,12.5,8.7c1.7-0.5,3.4-0.5,5-0.5c6-0.2,12-0.5,18-1c10.3-1,20.7-2.2,30.8-3.4
			c2.2-0.2,4.3-0.5,6.2-1.2c7-2.6,13.2-6.5,18.7-11.1c1.2-1,2.2-2.6,3.4-3.8c2.2-2.9,4.3-5.8,6.5-8.4c2.2-2.6,2.4-6,2.9-9.4
			C1269.5,476,1269,475.1,1268.3,474.6z M1063.8,446.7c0,0,8.7-40.6,12.5-38.2C1080.1,411.2,1074.8,441.2,1063.8,446.7z"/>
	</g>
</g>
</svg>
